<svg width="80" height="77" viewBox="0 0 80 77" fill="none" xmlns="http://www.w3.org/2000/svg">
<path fill-rule="evenodd" clip-rule="evenodd" d="M32.8456 11.8095C32.7463 9.7092 32.7662 7.66456 32.8655 5.7451C33.2033 -0.0271957 38.5682 -0.00730796 38.9855 0.00064012C39.8598 0.0205103 43.7546 0.266874 44.6885 4.76747C44.7481 5.03572 44.8872 6.97901 44.9269 7.72811C45.0064 9.32568 45.0461 10.8955 44.8275 12.4712C45.0262 15.1437 45.4633 17.8938 46.2979 20.4809C47.51 24.2999 49.4771 27.8249 53.0339 29.7026C59.3924 33.0805 67.7577 32.9434 74.752 33.8018C77.6729 34.1595 79.8984 36.5955 79.9978 39.5363C80.0773 42.4791 78.0108 45.0463 75.1098 45.5808C66.3669 47.1982 56.3124 55.1484 49.9142 61.5506C47.947 63.5177 45.7415 68.2031 43.2775 71.2035C41.2905 73.6077 39.0848 75.2193 36.9985 75.8591C36.1838 76.1075 31.6733 77.0136 29.6466 72.3441C29.0902 71.0326 27.1231 64.1655 26.9442 63.3826C25.8712 58.8959 24.3413 54.888 21.3409 51.3193C18.7379 48.2255 15.5784 45.5233 11.7832 44.0251C10.2532 43.421 8.66357 42.962 7.07395 42.4891C6.51758 42.4215 4.94787 42.2228 4.39151 42.034C3.2589 41.6565 2.42427 41.0644 1.82816 40.4743C0.695555 39.3576 0.119249 38.0243 0.0198979 36.5062C-0.0595832 35.5047 0.0795378 34.3165 0.794868 32.9991C1.33137 32.0632 2.54341 30.6543 4.72915 29.7403C7.01423 28.7846 11.9223 27.8765 12.7966 27.64C18.8769 26.0027 24.8381 23.5131 29.5076 19.1973C31.8324 17.0394 32.3688 14.7125 32.8456 11.8095ZM36.7404 28.7072C39.0851 33.5674 42.582 37.6587 47.4503 40.2358C49.4572 41.3068 51.6429 42.1195 53.9081 42.7514C49.2386 46.0022 44.9068 49.698 41.4693 53.1236C40.3565 54.2383 39.1446 56.0425 37.853 58.0236C36.3429 52.7341 34.1174 47.9832 30.4613 43.6356C28.2954 41.0724 25.8513 38.7296 23.129 36.7764C28.0569 34.8251 32.7266 32.2142 36.7404 28.7072Z" fill="#3C3679"/>
</svg>
