<svg width="20" height="20" viewBox="0 0 20 20" fill="none" xmlns="http://www.w3.org/2000/svg">
<path fill-rule="evenodd" clip-rule="evenodd" d="M8.80488 11.8178L12.4619 17.7508C12.6219 18.0108 12.8719 18.0078 12.9729 17.9938C13.0739 17.9798 13.3169 17.9178 13.4049 17.6228L17.9779 2.17777C18.0579 1.90477 17.9109 1.71877 17.8449 1.65277C17.7809 1.58677 17.5979 1.44577 17.3329 1.52077L1.87688 6.04677C1.58388 6.13277 1.51988 6.37877 1.50588 6.47977C1.49188 6.58277 1.48788 6.83777 1.74688 7.00077L7.74788 10.7538L13.0499 5.39577C13.3409 5.10177 13.8159 5.09877 14.1109 5.38977C14.4059 5.68077 14.4079 6.15677 14.1169 6.45077L8.80488 11.8178ZM12.8949 19.4998C12.1989 19.4998 11.5609 19.1458 11.1849 18.5378L7.30788 12.2468L0.951884 8.27177C0.266884 7.84277 -0.0911161 7.07877 0.0198839 6.27577C0.129884 5.47277 0.680884 4.83477 1.45488 4.60777L16.9109 0.0817716C17.6219 -0.126228 18.3839 0.0707716 18.9079 0.592772C19.4319 1.11977 19.6269 1.88977 19.4149 2.60377L14.8419 18.0478C14.6129 18.8248 13.9729 19.3738 13.1719 19.4808C13.0779 19.4928 12.9869 19.4998 12.8949 19.4998Z" fill="#131126"/>
</svg>
