<svg width="53" height="67" viewBox="0 0 53 67" fill="none" xmlns="http://www.w3.org/2000/svg">
<path d="M44.5354 21.2168C44.0941 20.7878 43.4747 20.5929 42.8687 20.6926C42.2616 20.7919 41.7372 21.1731 41.4556 21.7201C40.4869 23.6019 39.2564 25.3313 37.8088 26.86C37.9531 25.7557 38.0258 24.6447 38.0258 23.5308C38.0258 21.3935 37.7393 19.1939 37.1741 16.9927C35.3157 9.76228 30.4425 3.64768 23.8044 0.216753C23.2265 -0.0818522 22.5379 -0.0713685 21.9692 0.244712C21.4006 0.56092 21.0283 1.14066 20.9773 1.78913C20.4598 8.35975 17.0753 14.3376 11.6866 18.1937C11.6152 18.2451 11.5444 18.2971 11.4736 18.3489C11.327 18.4562 11.1887 18.5576 11.0596 18.6428C11.0393 18.6563 11.0193 18.6701 10.9996 18.6841C7.61051 21.1106 4.8141 24.3452 2.91226 28.0391C0.979816 31.7965 0 35.8285 0 40.0229C0 42.1596 0.286435 44.3591 0.851412 46.5608C3.83295 58.1655 14.2763 66.2704 26.2477 66.2704C40.72 66.2704 52.4939 54.4958 52.4939 40.0229C52.4939 32.8858 49.6675 26.207 44.5354 21.2168Z" fill="#3C3679"/>
<path d="M25.2428 48.1974C29.6791 48.1974 33.2755 44.601 33.2755 40.1646C33.2755 35.7282 29.6791 32.1318 25.2428 32.1318C20.8064 32.1318 17.21 35.7282 17.21 40.1646C17.21 44.601 20.8064 48.1974 25.2428 48.1974Z" fill="#F8F8F8"/>
</svg>
