<svg width="20" height="21" viewBox="0 0 20 21" fill="none" xmlns="http://www.w3.org/2000/svg">
<path fill-rule="evenodd" clip-rule="evenodd" d="M10 2.00012C5.313 2.00012 1.5 5.81312 1.5 10.5001C1.5 15.1871 5.313 19.0001 10 19.0001C14.687 19.0001 18.5 15.1871 18.5 10.5001C18.5 5.81312 14.687 2.00012 10 2.00012ZM10 20.5001C4.486 20.5001 0 16.0141 0 10.5001C0 4.98612 4.486 0.500122 10 0.500122C15.514 0.500122 20 4.98612 20 10.5001C20 16.0141 15.514 20.5001 10 20.5001Z" fill="black"/>
<path fill-rule="evenodd" clip-rule="evenodd" d="M13.4312 14.1926C13.3002 14.1926 13.1682 14.1586 13.0472 14.0876L9.27719 11.8386C9.05119 11.7026 8.91119 11.4576 8.91119 11.1936V6.34558C8.91119 5.93158 9.24719 5.59558 9.66119 5.59558C10.0762 5.59558 10.4112 5.93158 10.4112 6.34558V10.7676L13.8162 12.7976C14.1712 13.0106 14.2882 13.4706 14.0762 13.8266C13.9352 14.0616 13.6862 14.1926 13.4312 14.1926Z" fill="black"/>
</svg>
