<svg width="21" height="22" viewBox="0 0 21 22" fill="none" xmlns="http://www.w3.org/2000/svg">
<mask id="mask0_219_325" style="mask-type:luminance" maskUnits="userSpaceOnUse" x="0" y="7" width="21" height="15">
<path fill-rule="evenodd" clip-rule="evenodd" d="M0.374668 7.29419H20.3743V21.0382H0.374668V7.29419Z" fill="white"/>
</mask>
<g mask="url(#mask0_219_325)">
<path fill-rule="evenodd" clip-rule="evenodd" d="M15.9397 21.0382H4.80967C2.36467 21.0382 0.374668 19.0492 0.374668 16.6032V11.7282C0.374668 9.28319 2.36467 7.29419 4.80967 7.29419H5.74267C6.15667 7.29419 6.49267 7.63019 6.49267 8.04419C6.49267 8.45819 6.15667 8.79419 5.74267 8.79419H4.80967C3.19067 8.79419 1.87467 10.1102 1.87467 11.7282V16.6032C1.87467 18.2222 3.19067 19.5382 4.80967 19.5382H15.9397C17.5577 19.5382 18.8747 18.2222 18.8747 16.6032V11.7192C18.8747 10.1062 17.5627 8.79419 15.9507 8.79419H15.0077C14.5937 8.79419 14.2577 8.45819 14.2577 8.04419C14.2577 7.63019 14.5937 7.29419 15.0077 7.29419H15.9507C18.3897 7.29419 20.3747 9.27919 20.3747 11.7192V16.6032C20.3747 19.0492 18.3847 21.0382 15.9397 21.0382Z" fill="black"/>
</g>
<mask id="mask1_219_325" style="mask-type:luminance" maskUnits="userSpaceOnUse" x="9" y="0" width="3" height="15">
<path fill-rule="evenodd" clip-rule="evenodd" d="M9.62427 0.500244H11.1243V14.0411H9.62427V0.500244Z" fill="white"/>
</mask>
<g mask="url(#mask1_219_325)">
<path fill-rule="evenodd" clip-rule="evenodd" d="M10.3743 14.0411C9.96027 14.0411 9.62427 13.7051 9.62427 13.2911V1.25012C9.62427 0.836122 9.96027 0.500122 10.3743 0.500122C10.7883 0.500122 11.1243 0.836122 11.1243 1.25012V13.2911C11.1243 13.7051 10.7883 14.0411 10.3743 14.0411Z" fill="black"/>
</g>
<path fill-rule="evenodd" clip-rule="evenodd" d="M7.45927 4.92889C7.26827 4.92889 7.07627 4.85589 6.93027 4.70989C6.63727 4.41789 6.63527 3.94389 6.92827 3.64989L9.84327 0.721894C10.1243 0.438894 10.6243 0.438894 10.9053 0.721894L13.8213 3.64989C14.1133 3.94389 14.1123 4.41789 13.8193 4.70989C13.5253 5.00189 13.0513 5.00189 12.7593 4.70789L10.3743 2.31389L7.99027 4.70789C7.84427 4.85589 7.65127 4.92889 7.45927 4.92889Z" fill="black"/>
</svg>
