<svg width="159" height="98" viewBox="0 0 159 98" fill="none" xmlns="http://www.w3.org/2000/svg">
<path fill-rule="evenodd" clip-rule="evenodd" d="M37.1666 18.8396C35.7673 20.5025 34.5167 22.2889 33.4449 24.187C32.8196 25.2819 31.718 27.8321 31.9041 29.6788C32.0456 31.0625 32.7005 32.188 34.0106 32.8519C36.1022 33.9148 37.777 33.7846 39.0647 33.1422C40.3004 32.5274 41.2828 31.329 41.8932 29.71C42.98 26.8197 42.8535 22.4504 42.3026 19.8184C43.7913 18.3007 45.4215 16.9207 47.1558 15.6896C60.4945 6.23417 80.0633 9.76681 95.1215 23.9049C100.399 28.8577 102.907 39.2704 104.225 50.4929C106.302 68.1025 105.118 87.7703 104.954 93.5323C104.917 95.0485 105.081 95.9477 105.155 96.1271C105.572 97.1178 106.317 97.3783 106.83 97.4751C107.552 97.6091 108.125 97.4677 108.594 97.222C109.219 96.8945 109.741 96.3199 109.979 95.4252C110.098 94.9681 110.135 94.3332 110.12 93.6551C110.105 93.2539 110.009 92.8163 110.09 92.5289C110.671 90.5095 111.371 88.5362 112.048 86.5503C114.326 79.8699 117.281 73.61 120.548 67.3567C130.962 47.4753 141.011 26.4617 158.078 11.3143C159.001 10.4963 159.091 9.08428 158.272 8.16203C157.453 7.24054 156.039 7.15642 155.116 7.97445C137.639 23.4821 127.248 44.9304 116.596 65.2859C114.117 70.0155 111.825 74.7517 109.852 79.6592C110.031 68.5796 109.763 53.5655 107.299 41.1737C105.55 32.3368 102.625 24.816 98.1808 20.6491C81.3809 4.8765 59.4524 1.49715 44.5729 12.046C43.1066 13.0836 41.7146 14.2165 40.3972 15.4387C32.4922 1.63414 15.9453 -3.84274 1.30403 2.83923C0.187504 3.35134 -0.311194 4.677 0.202406 5.79798C0.716005 6.91896 2.04092 7.41393 3.15744 6.90182C16.0644 1.01257 30.6834 6.20737 37.1666 18.8396ZM38.3129 24.7706C37.9705 25.2983 37.6431 25.8372 37.3304 26.3873C37.1071 26.7729 36.7721 27.4442 36.5414 28.1618C36.467 28.4111 36.4074 28.8034 36.3777 29.0431C36.6531 29.1741 36.8763 29.2426 37.0773 29.1436C37.4048 28.9791 37.5462 28.5689 37.71 28.135C38.0747 27.1681 38.2608 25.9645 38.3129 24.7706Z" fill="#F3DEB3"/>
</svg>
